<?xml version="1.0" encoding="utf-8"?>
<!-- Generator: Adobe Illustrator 16.0.0, SVG Export Plug-In . SVG Version: 6.00 Build 0)  -->
<!DOCTYPE svg PUBLIC "-//W3C//DTD SVG 1.1//EN" "http://www.w3.org/Graphics/SVG/1.1/DTD/svg11.dtd">
<svg version="1.1" xmlns="http://www.w3.org/2000/svg" xmlns:xlink="http://www.w3.org/1999/xlink" x="0px" y="0px" width="5000px"
	 height="5000px" viewBox="0 0 5000 5000" enable-background="new 0 0 5000 5000" xml:space="preserve">
<g>
	<g>
		<path fill-rule="evenodd" clip-rule="evenodd" fill="#FFFFFF" d="M4,4c1668,0,3336,0,5004,0c0,1666.667,0,3333.333,0,5000
			c-1668,0-3336,0-5004,0C4,3337.333,4,1670.667,4,4z M1411.86,4831.442c10.868,4.457,19.622,3.126,28.149,3.13
			c170.677,0.076,341.355,0.139,512.032-0.015c33.676-0.03,24.885,4.118,50.091-21.108
			c177.636-177.795,355.118-355.743,532.751-533.539c24.671-24.695,16.606-21.121,50.147-21.134
			c266.66-0.099,533.32-0.054,799.981-0.056c6.667,0,13.345-0.277,19.997,0.025c7.825,0.354,14.362-1.896,19.668-7.785
			c2.673-2.966,5.664-5.646,8.493-8.472c61.315-61.247,122.655-122.47,183.938-183.749
			c173.004-172.997,346.012-345.991,518.966-519.039c135.725-135.799,271.371-271.675,407.053-407.516
			c17.4-12.305,24.496-28.934,20.991-50.013c0-871.98,0-1743.961-0.005-2615.941c0-6.666,0.176-13.345-0.188-19.993
			c-0.207-3.768-1.344-7.485-2.004-10.919c-3.156-0.825-5.043-1.749-6.929-1.749c-1299.969-0.104-2599.938-0.147-3899.906-0.143
			c-2.588,0-5.176,0.709-7.419,1.037c-6.105,6.558-7.737,14.588-10.51,21.975c-68.154,181.574-136.215,363.183-204.296,544.784
			c-22.459,59.909-44.572,119.951-67.641,179.624c-5.651,14.618-9.296,28.97-7.949,44.537c0.058,0.662,0.007,1.333,0.007,2
			c0,999.977,0,1999.955,0.001,2999.932c0,6-0.21,12.012,0.12,17.994c0.209,3.777,1.242,7.51,1.855,10.975
			c9.479,3.852,18.23,2.369,26.756,2.371c329.326,0.077,658.651,0.064,987.978,0.068c7.333,0,14.677-0.177,21.994,0.176
			c3.863,0.187,7.679,1.342,11.13,1.986c5.535,9.348,3.707,18.9,3.712,28.061c0.112,171.996,0.069,343.992,0.122,515.988
			C1410.95,4813.495,1411.523,4822.055,1411.86,4831.442z"/>
		<path fill-rule="evenodd" clip-rule="evenodd" d="M1411.86,4831.442c-0.337-9.388-0.91-17.947-0.913-26.507
			c-0.053-171.996-0.01-343.992-0.122-515.988c-0.006-9.16,1.823-18.713-3.712-28.061c-3.451-0.645-7.267-1.8-11.13-1.986
			c-7.317-0.353-14.661-0.176-21.994-0.176c-329.326-0.004-658.652,0.009-987.978-0.068c-8.525-0.002-17.277,1.48-26.756-2.371
			c-0.613-3.465-1.646-7.197-1.855-10.975c-0.331-5.982-0.12-11.994-0.12-17.994c-0.001-999.978-0.001-1999.955-0.001-2999.932
			c0-0.667,0.05-1.337-0.007-2c-1.348-15.567,2.297-29.919,7.949-44.537c23.069-59.673,45.182-119.715,67.641-179.624
			c68.081-181.601,136.143-363.21,204.296-544.784c2.773-7.387,4.404-15.417,10.51-21.975c2.243-0.328,4.832-1.037,7.419-1.037
			c1299.969-0.004,2599.938,0.039,3899.906,0.143c1.886,0,3.772,0.924,6.929,1.749c0.66,3.434,1.797,7.151,2.004,10.919
			c0.363,6.648,0.188,13.327,0.188,19.993c0.005,871.98,0.005,1743.96,0.005,2615.941c3.505,21.079-3.591,37.708-20.991,50.013
			c-135.682,135.841-271.328,271.717-407.053,407.516c-172.954,173.048-345.962,346.042-518.966,519.039
			c-61.282,61.279-122.622,122.502-183.938,183.749c-2.829,2.826-5.82,5.506-8.493,8.472c-5.306,5.889-11.843,8.139-19.668,7.785
			c-6.652-0.303-13.33-0.025-19.997-0.025c-266.661,0.002-533.321-0.043-799.981,0.056c-33.541,0.013-25.477-3.562-50.147,21.134
			c-177.634,177.796-355.115,355.744-532.751,533.539c-25.206,25.227-16.415,21.078-50.091,21.108
			c-170.677,0.153-341.355,0.091-512.032,0.015C1431.482,4834.568,1422.729,4835.899,1411.86,4831.442z M1887.585,4162.395
			c3.283-1.202,6.011-1.518,7.781-2.987c4.089-3.393,7.752-7.306,11.521-11.075c178.635-178.645,357.247-357.312,535.909-535.928
			c22.03-22.024,15.493-18.952,44.98-18.958c332.625-0.071,665.25-0.012,997.875-0.099c32.217-0.008,24.946,3.328,48.515-20.245
			c210.199-210.24,420.345-420.535,630.43-630.89c23.693-23.725,20.23-15.728,20.233-48.459
			c0.067-682.577,0.051-1365.154,0.045-2047.731c0-6.665,0.12-13.34-0.208-19.991c-0.158-3.21-1.229-6.376-2.037-10.298
			c-4.775-0.933-9.212-2.288-13.715-2.566c-7.307-0.452-14.656-0.236-21.988-0.236c-1028.537-0.006-2057.075-0.006-3085.612,0
			c-7.332,0-14.685-0.232-21.988,0.246c-4.48,0.293-8.886,1.734-13,2.592c-4.53,10.54-2.809,20.653-2.81,30.495
			c-0.083,903.886-0.077,1807.772-0.076,2711.659c0,5.999-0.026,11.998,0.051,17.997c0.034,2.661,0.105,5.348,0.494,7.973
			c0.79,5.331,3.68,8.477,9.108,8.89c7.295,0.555,14.642,0.595,21.966,0.596c265.3,0.026,530.6,0.021,795.9,0.029
			c7.332,0,14.675-0.132,21.989,0.255c3.172,0.168,6.282,1.498,9.013,2.196c4.336,8.99,2.775,17.795,2.779,26.334
			c0.093,170.646,0.067,341.291,0.077,511.936c0,6.665-0.079,13.34,0.274,19.988
			C1885.222,4156.555,1886.499,4158.931,1887.585,4162.395z"/>
		<path fill-rule="evenodd" clip-rule="evenodd" fill="#FFFFFF" d="M1887.585,4162.395c-1.086-3.464-2.363-5.84-2.493-8.277
			c-0.353-6.648-0.274-13.323-0.274-19.988c-0.01-170.645,0.016-341.29-0.077-511.936c-0.004-8.539,1.557-17.344-2.779-26.334
			c-2.73-0.698-5.841-2.028-9.013-2.196c-7.314-0.387-14.657-0.255-21.989-0.255c-265.3-0.008-530.6-0.003-795.9-0.029
			c-7.324-0.001-14.67-0.041-21.966-0.596c-5.428-0.413-8.318-3.559-9.108-8.89c-0.389-2.625-0.46-5.312-0.494-7.973
			c-0.077-5.999-0.051-11.998-0.051-17.997c-0.001-903.887-0.008-1807.773,0.076-2711.659c0.001-9.842-1.72-19.955,2.81-30.495
			c4.114-0.858,8.519-2.299,13-2.592c7.303-0.478,14.656-0.246,21.988-0.246c1028.537-0.006,2057.075-0.006,3085.612,0
			c7.332,0,14.682-0.216,21.988,0.236c4.503,0.278,8.939,1.634,13.715,2.566c0.809,3.922,1.879,7.087,2.037,10.298
			c0.328,6.651,0.208,13.326,0.208,19.991c0.006,682.577,0.022,1365.154-0.045,2047.731c-0.003,32.731,3.46,24.734-20.233,48.459
			c-210.085,210.354-420.23,420.649-630.43,630.89c-23.568,23.573-16.298,20.237-48.515,20.245
			c-332.625,0.087-665.25,0.027-997.875,0.099c-29.488,0.006-22.95-3.066-44.98,18.958
			c-178.663,178.616-357.274,357.283-535.909,535.928c-3.769,3.77-7.432,7.683-11.521,11.075
			C1893.596,4160.877,1890.868,4161.192,1887.585,4162.395z M1886.291,2955.42c5.447-2.977,10.113-5.405,14.664-8.032
			c93.461-53.964,186.924-107.924,280.357-161.936c294.14-170.038,588.267-340.1,882.4-510.147
			c76.706-44.346,153.442-88.637,230.089-133.084c5.545-3.215,12.363-5.134,16.031-12.812c-6.51-3.933-12.662-7.792-18.945-11.424
			c-185.71-107.357-371.445-214.671-557.151-322.034c-236.459-136.706-472.895-273.453-709.346-410.17
			c-42.1-24.343-84.211-48.667-126.379-72.892c-4.296-2.468-8.323-6.791-14.945-4.114c-0.372,4.749-1.042,9.312-1.041,13.875
			c0.248,542.482,0.544,1084.964,0.927,1627.446C1882.952,2951.191,1884.273,2952.285,1886.291,2955.42z"/>
		<path fill-rule="evenodd" clip-rule="evenodd" d="M1886.291,2955.42c-2.017-3.135-3.338-4.229-3.339-5.324
			c-0.383-542.482-0.679-1084.964-0.927-1627.446c-0.002-4.563,0.669-9.126,1.041-13.875c6.623-2.677,10.649,1.646,14.945,4.114
			c42.168,24.225,84.279,48.549,126.379,72.892c236.452,136.718,472.887,273.465,709.346,410.17
			c185.706,107.363,371.441,214.677,557.151,322.034c6.283,3.632,12.436,7.491,18.945,11.424
			c-3.668,7.678-10.486,9.596-16.031,12.812c-76.646,44.447-153.383,88.738-230.089,133.084
			c-294.134,170.048-588.261,340.109-882.4,510.147c-93.433,54.012-186.896,107.972-280.357,161.936
			C1896.403,2950.015,1891.737,2952.443,1886.291,2955.42z"/>
	</g>
</g>
</svg>
