<?xml version="1.0" encoding="UTF-8" standalone="no"?>
<!-- Generator: Adobe Illustrator 16.0.0, SVG Export Plug-In . SVG Version: 6.00 Build 0)  -->

<svg
   xmlns:dc="http://purl.org/dc/elements/1.1/"
   xmlns:cc="http://creativecommons.org/ns#"
   xmlns:rdf="http://www.w3.org/1999/02/22-rdf-syntax-ns#"
   xmlns:svg="http://www.w3.org/2000/svg"
   xmlns="http://www.w3.org/2000/svg"
   xmlns:sodipodi="http://sodipodi.sourceforge.net/DTD/sodipodi-0.dtd"
   xmlns:inkscape="http://www.inkscape.org/namespaces/inkscape"
   version="1.1"
   id="Layer_1"
   x="0px"
   y="0px"
   width="16"
   height="16"
   viewBox="0 0 16 16"
   enable-background="new 0 0 612 792"
   xml:space="preserve"
   inkscape:version="0.91 r13725"
   sodipodi:docname="gnome-twitch-symbolic.svg"><metadata
     id="metadata19"><rdf:RDF><cc:Work
         rdf:about=""><dc:format>image/svg+xml</dc:format><dc:type
           rdf:resource="http://purl.org/dc/dcmitype/StillImage" /><dc:title></dc:title></cc:Work></rdf:RDF></metadata><defs
     id="defs17" /><sodipodi:namedview
     pagecolor="#555753"
     bordercolor="#666666"
     borderopacity="1"
     objecttolerance="10"
     gridtolerance="10"
     guidetolerance="10"
     inkscape:pageopacity="1"
     inkscape:pageshadow="2"
     inkscape:window-width="1534"
     inkscape:window-height="773"
     id="namedview15"
     showgrid="false"
     fit-margin-top="0"
     fit-margin-left="0"
     fit-margin-right="0"
     fit-margin-bottom="0"
     inkscape:zoom="19.070707"
     inkscape:cx="15.795833"
     inkscape:cy="8.2294846"
     inkscape:window-x="16"
     inkscape:window-y="45"
     inkscape:window-maximized="0"
     inkscape:current-layer="layer2"
     showborder="false"><inkscape:grid
       type="xygrid"
       id="grid4712" /></sodipodi:namedview><g
     inkscape:groupmode="layer"
     id="layer1"
     inkscape:label="bg"
     style="display:inline"
     transform="translate(0,-309.27014)" /><g
     inkscape:groupmode="layer"
     id="layer2"
     inkscape:label="logo"
     transform="translate(0,-309.27014)"><path
       d="m 6.1746261,325.27014 c -0.7242713,0 -1.4301192,0 -2.1340631,0 -0.047962,-0.0532 -0.030414,-0.11299 -0.030517,-0.16774 -0.00134,-0.52977 -6.176e-4,-1.05945 -5.661e-4,-1.58922 0,-0.0727 8.234e-4,-0.14541 -0.00103,-0.21811 -7.719e-4,-0.0301 -0.00746,-0.0602 -0.010189,-0.0808 -0.051719,-0.0429 -0.1028718,-0.0316 -0.1501136,-0.0317 -0.2444943,-3e-4 -0.4889886,0.003 -0.7334314,0.003 -0.9725223,-6.9e-4 -1.945096,-0.002 -2.91761827,-0.004 -0.0585119,-1e-4 -0.11908226,0.01 -0.1843871,-0.0195 -0.00365377,-0.0285 -0.00946894,-0.0581 -0.0108584,-0.0878 -0.001955547,-0.0415 -6.6901e-4,-0.0831 -6.6901e-4,-0.12464 0,-3.56784 5.1462e-4,-7.13578 -0.001183613402,-10.70367 C -5.1355052e-5,312.12478 0.0185263,312.01174 0.06381255,311.89753 c 0.32528909,-0.82015 0.64599809,-1.64196 0.96850825,-2.46314 0.020688,-0.0526 0.044309,-0.10423 0.06407,-0.15042 0.1491358,-0.0176 14.7262144,-0.0187 14.8840984,-0.002 0.0054,0.0261 0.01461,0.0549 0.01652,0.0842 0.003,0.0466 0.0012,0.0934 0.0012,0.14019 5.2e-5,3.10049 5.15e-4,6.20097 -5.66e-4,9.30146 0,0.23808 0.03216,0.17025 -0.142857,0.33784 -1.362808,1.30461 -2.72649,2.60849 -4.090172,3.91227 -0.159994,0.15298 -0.110746,0.12297 -0.310417,0.12317 -0.95626,9.3e-4 -1.9125206,3.9e-4 -2.868781,3.4e-4 -0.010858,0 -0.021717,-10e-5 -0.032575,1e-4 -0.225505,0.003 -0.1734773,-0.0183 -0.3259067,0.12745 -0.6378157,0.60951 -1.2745506,1.22011 -1.9118003,1.83016 -0.046007,0.044 -0.0933,0.0867 -0.1405417,0.13055 z m -3.6319059,-4.51519 c 0.044257,0.005 0.080846,0.0127 0.1174355,0.0128 0.2499492,0.001 0.4999499,-0.001 0.7498992,0.002 0.079405,0.001 0.1371453,-0.0199 0.1704924,-0.0915 0.011013,-0.0236 0.027017,-0.045 0.040243,-0.0677 0.2269974,-0.39027 0.4572883,-0.77872 0.6798599,-1.17131 0.1942163,-0.34251 0.3629075,-0.69692 0.5127124,-1.0594 0.1894818,-0.45855 0.3001758,-0.93274 0.2937946,-1.42725 -0.00468,-0.36341 -0.019041,-0.72673 -0.033296,-1.08999 -0.015902,-0.40474 -0.03942,-0.80918 -0.054241,-1.21396 -0.010653,-0.29101 0.00175,-0.58162 0.04858,-0.86997 0.1013279,-0.62403 0.3683109,-1.18022 0.7573095,-1.68628 0.1990022,-0.25889 0.4451948,-0.4677 0.7318362,-0.63435 0.224064,-0.13026 0.4620741,-0.22957 0.7128982,-0.30213 0.2508755,-0.0726 0.5044271,-0.12469 0.76894,-0.109 0.1897391,0.0112 0.3801986,0.0143 0.5691144,0.0324 0.358276,0.0344 0.7074947,0.10842 1.0386504,0.24807 0.7541706,0.31806 1.3057876,0.8289 1.6219166,1.56232 0.195091,0.45269 0.275423,0.92821 0.286436,1.41396 0.0085,0.37375 -9.26e-4,0.74793 -0.004,1.12187 -0.0031,0.38432 -0.003,0.76801 0.0371,1.15149 0.04647,0.44497 0.174661,0.86481 0.389102,1.26133 0.32498,0.601 0.700135,1.17204 1.123768,1.71402 0.02187,0.0279 0.04987,0.0516 0.08311,0.0855 0.04889,-0.0442 0.09268,-0.0818 0.134315,-0.12165 0.365121,-0.3489 0.730601,-0.69736 1.094332,-1.04754 0.182895,-0.1761 0.156032,-0.11117 0.156135,-0.36504 7.72e-4,-2.40494 5.14e-4,-4.80989 5.14e-4,-7.21483 0,-0.0467 0.0015,-0.0936 -0.0014,-0.14019 -0.0018,-0.0294 -0.01065,-0.0584 -0.01657,-0.089 -0.08723,-0.0277 -0.169103,-0.0188 -0.249589,-0.0188 -3.836517,-3.9e-4 -7.6730346,-3.4e-4 -11.509552,-2.9e-4 -0.048889,0 -0.098034,-0.002 -0.1466142,0.002 -0.035869,0.003 -0.070966,0.0144 -0.102769,0.0212 -0.020945,0.13576 -0.022386,9.93321 -5.146e-4,10.0915 z m 3.2883479,2.06647 c 0.069628,-0.0274 0.1088929,-0.0787 0.1539218,-0.12165 0.6228403,-0.59466 1.2443942,-1.19049 1.867852,-1.78446 0.1851591,-0.1764 0.1056508,-0.14565 0.3652748,-0.14614 0.8531313,-0.002 1.706211,-3.5e-4 2.5593423,-0.001 0.06371,-5e-5 0.129323,0.0103 0.201833,-0.0187 -0.01132,-0.0356 -0.01729,-0.0704 -0.03294,-0.10084 -0.05738,-0.11181 -0.118156,-0.22214 -0.177337,-0.33306 -0.242127,-0.45348 -0.464596,-0.91523 -0.642756,-1.39557 -0.121861,-0.32859 -0.211713,-0.66436 -0.2537571,-1.01188 -0.015747,-0.12991 0.00376,-0.24261 0.075906,-0.35609 0.1075552,-0.16921 0.1347782,-0.35987 0.1183102,-0.5557 -0.01256,-0.14944 -0.079817,-0.26843 -0.2220569,-0.34123 -0.057328,-0.0294 -0.1141934,-0.061 -0.1746608,-0.0833 -0.2176314,-0.0804 -0.4366521,-0.15721 -0.6551583,-0.23533 -0.023672,-0.008 -0.055321,-0.007 -0.056556,-0.0451 0.00978,-0.0102 0.019504,-0.0229 0.031649,-0.0328 0.2416124,-0.19641 0.3584818,-0.45235 0.3824115,-0.74881 0.013226,-0.16346 -0.016982,-0.32043 -0.1142963,-0.46111 -0.1034894,-0.14959 -0.3061454,-0.20876 -0.4563105,-0.15962 -0.1279851,0.0419 -0.2354885,0.10851 -0.3201429,0.20561 -0.2276149,0.26115 -0.3270903,0.55792 -0.2588007,0.89801 0.00386,0.0192 0.00401,0.0392 0.00715,0.0718 -0.045801,-0.0104 -0.080898,-0.0172 -0.1153255,-0.0265 -0.1514517,-0.0408 -0.3022858,-0.0836 -0.4540462,-0.12322 -0.3209663,-0.0839 -0.633956,-0.0631 -0.9382488,0.0682 -0.048734,0.021 -0.099578,0.0376 -0.148261,0.0558 -0.00648,-0.0106 -0.011991,-0.0154 -0.011527,-0.0195 0.00283,-0.0252 0.00648,-0.0504 0.010756,-0.0755 0.045749,-0.2705 -0.01935,-0.51561 -0.1880924,-0.73529 -0.06515,-0.0848 -0.1467171,-0.15303 -0.2532942,-0.18874 -0.1341605,-0.045 -0.2641526,-0.0139 -0.3494246,0.0941 -0.03839,0.0486 -0.072509,0.10625 -0.087845,0.16473 -0.087691,0.33455 0.00545,0.6255 0.2500007,0.87376 0.036435,0.0369 0.087022,0.0612 0.1316389,0.0906 0.021357,0.0141 0.043948,0.0263 0.074362,0.0443 -0.042867,0.0318 -0.076575,0.0572 -0.110694,0.0821 -0.138123,0.10084 -0.2777385,0.19991 -0.413906,0.30311 -0.059335,0.045 -0.1150168,0.0954 -0.1665814,0.14855 -0.086867,0.0895 -0.1430634,0.19538 -0.1595311,0.31767 -0.025834,0.19169 0.00592,0.3733 0.117384,0.53686 0.056145,0.0824 0.1203688,0.15996 0.181917,0.23896 0.028818,0.037 0.060004,0.0724 0.087999,0.10601 -0.019452,0.14609 -0.038802,0.28486 -0.056351,0.42387 -0.048322,0.38274 -0.1372482,0.75629 -0.2765549,1.11848 -0.039265,0.10202 -0.070297,0.20758 -0.1174355,0.30615 -0.1241254,0.25943 -0.2554555,0.51576 -0.3827717,0.77386 -0.015335,0.0312 -0.023312,0.0657 -0.034016,0.0968 0.05069,0.0399 0.1010707,0.0281 0.1478493,0.0284 0.2282323,0.001 0.4564647,1.5e-4 0.6846457,0.001 0.042044,2e-4 0.084088,0.006 0.1260296,0.01 0.033193,0.0663 0.023467,0.12927 0.023569,0.19027 7.719e-4,0.54542 5.146e-4,1.09079 6.176e-4,1.63615 0,0.0519 0,0.10389 0.00417,0.15564 0.00139,0.0186 0.014101,0.0364 0.024084,0.0603 z"
       id="path9"
       inkscape:connector-curvature="0"
       style="clip-rule:evenodd;fill:#bebebe;fill-opacity:1;fill-rule:evenodd" /></g></svg>