<?xml version="1.0" encoding="UTF-8" standalone="no"?>
<!-- Generator: Adobe Illustrator 16.0.0, SVG Export Plug-In . SVG Version: 6.00 Build 0)  -->

<svg
   xmlns:dc="http://purl.org/dc/elements/1.1/"
   xmlns:cc="http://creativecommons.org/ns#"
   xmlns:rdf="http://www.w3.org/1999/02/22-rdf-syntax-ns#"
   xmlns:svg="http://www.w3.org/2000/svg"
   xmlns="http://www.w3.org/2000/svg"
   xmlns:sodipodi="http://sodipodi.sourceforge.net/DTD/sodipodi-0.dtd"
   xmlns:inkscape="http://www.inkscape.org/namespaces/inkscape"
   version="1.1"
   id="Layer_1"
   x="0px"
   y="0px"
   width="310.91113"
   height="325.27014"
   viewBox="0 0 310.91113 325.27014"
   enable-background="new 0 0 612 792"
   xml:space="preserve"
   inkscape:version="0.91 r13725"
   sodipodi:docname="gnome-twitch.svg"><metadata
     id="metadata19"><rdf:RDF><cc:Work
         rdf:about=""><dc:format>image/svg+xml</dc:format><dc:type
           rdf:resource="http://purl.org/dc/dcmitype/StillImage" /><dc:title></dc:title></cc:Work></rdf:RDF></metadata><defs
     id="defs17" /><sodipodi:namedview
     pagecolor="#ffffff"
     bordercolor="#666666"
     borderopacity="1"
     objecttolerance="10"
     gridtolerance="10"
     guidetolerance="10"
     inkscape:pageopacity="0"
     inkscape:pageshadow="2"
     inkscape:window-width="1534"
     inkscape:window-height="773"
     id="namedview15"
     showgrid="false"
     fit-margin-top="0"
     fit-margin-left="0"
     fit-margin-right="0"
     fit-margin-bottom="0"
     inkscape:zoom="0.84281414"
     inkscape:cx="-119.2357"
     inkscape:cy="140.3352"
     inkscape:window-x="207"
     inkscape:window-y="79"
     inkscape:window-maximized="0"
     inkscape:current-layer="layer1" /><g
     inkscape:groupmode="layer"
     id="layer1"
     inkscape:label="bg"
     style="display:inline"><path
       style="fill:#ffffff;fill-rule:evenodd;stroke:#000000;stroke-width:1px;stroke-linecap:butt;stroke-linejoin:miter;stroke-opacity:1"
       d="m 30.849032,26.271836 1.186501,231.367734 54.579056,4.74601 14.238011,43.90054 49.83305,-35.59503 65.25757,-9.49201 80.68208,-66.44407 -3.5595,-177.975184 z"
       id="path4137"
       inkscape:connector-curvature="0" /></g><g
     inkscape:groupmode="layer"
     id="layer2"
     inkscape:label="logo"><path
       d="m 119.985,325.27014 c -14.074,0 -27.789998,0 -41.468998,0 -0.932,-1.082 -0.591,-2.297 -0.593,-3.41 -0.026,-10.77 -0.012,-21.538 -0.011,-32.308 0,-1.478 0.016,-2.956 -0.02,-4.434 -0.015,-0.612 -0.145,-1.223 -0.198,-1.642 -1.005,-0.873 -1.999,-0.643 -2.917,-0.645 -4.751,-0.006 -9.502,0.056 -14.252,0.053 -18.898,-0.014 -37.797,-0.039 -56.6949999,-0.076 -1.137,-0.002 -2.314,0.195 -3.58300003,-0.396 -0.071,-0.58 -0.184,-1.181 -0.211,-1.784 -0.038,-0.843 -0.013,-1.689 -0.013,-2.534 0,-72.532 0.01,-145.066 -0.02299999859,-217.599003 -9.999999997e-4,-2.462 0.3599999985903,-4.76 1.2400000285903,-7.082 6.321,-16.673 12.5529999,-33.38 18.8199999,-50.074 0.402,-1.07 0.861,-2.119 1.245,-3.05800002 2.898,-0.358 286.158998,-0.38 289.226998,-0.032 0.104,0.531 0.284,1.11700002 0.321,1.71200002 0.059,0.947 0.024,1.899 0.024,2.85 10e-4,63.031 0.01,126.062003 -0.011,189.093003 0,4.84 0.625,3.461 -2.776,6.868 -26.482,26.522 -52.981,53.029 -79.48,79.534 -3.109,3.11 -2.152,2.5 -6.032,2.504 -18.582,0.019 -37.164,0.008 -55.746,0.007 -0.211,0 -0.422,-0.002 -0.633,0.002 -4.382,0.07 -3.371,-0.371 -6.333,2.591 -12.394,12.391 -24.767,24.804 -37.15,37.206 -0.894,0.894 -1.813,1.762 -2.731,2.654 z m -70.574998,-91.791 c 0.86,0.103 1.571,0.258 2.282,0.261 4.857,0.022 9.715,-0.028 14.572,0.037 1.543,0.021 2.665,-0.404 3.313,-1.86 0.214,-0.479 0.525,-0.915 0.782,-1.376 4.411,-7.934 8.886,-15.831 13.211,-23.812 3.774,-6.963 7.052,-14.168 9.963,-21.537 3.682,-9.322 5.833,-18.962 5.709,-29.015 -0.091,-7.388 -0.37,-14.774 -0.647,-22.159 -0.309,-8.228 -0.766,-16.45 -1.054,-24.679 -0.207,-5.916 0.034,-11.824003 0.944,-17.686003 1.968998,-12.686 7.156998,-23.993 14.715998,-34.281 3.867,-5.263 8.651,-9.508 14.221,-12.896 4.354,-2.648 8.979,-4.667 13.853,-6.142 4.875,-1.476 9.802,-2.535 14.942,-2.216 3.687,0.228 7.388,0.291 11.059,0.659 6.962,0.699 13.748,2.204 20.183,5.043 14.655,6.466 25.374,16.851 31.517,31.761 3.791,9.203 5.352,18.87 5.566,28.745003 0.166,7.598 -0.018,15.205 -0.077,22.807 -0.061,7.813 -0.059,15.613 0.721,23.409 0.903,9.046 3.394,17.581 7.561,25.642 6.315,12.218 13.605,23.827 21.837,34.845 0.425,0.568 0.969,1.049 1.615,1.738 0.95,-0.898 1.801,-1.664 2.61,-2.473 7.095,-7.093 14.197,-14.177 21.265,-21.296 3.554,-3.58 3.032,-2.26 3.034,-7.421 0.015,-48.891 0.01,-97.782003 0.01,-146.673003 0,-0.95 0.029,-1.903 -0.027,-2.85 -0.035,-0.598 -0.207,-1.188 -0.322,-1.809 -1.695,-0.563 -3.286,-0.382 -4.85,-0.382 -74.551,-0.008 -149.102,-0.007 -223.652998,-0.006 -0.95,0 -1.905,-0.044 -2.849,0.037 -0.697,0.06 -1.379,0.292 -1.997,0.431 -0.407,2.76 -0.435,201.936003 -0.01,205.154003 z m 63.898998,42.01 c 1.353,-0.558 2.116,-1.599 2.991,-2.473 12.103,-12.089 24.181,-24.202 36.296,-36.277 3.598,-3.586 2.053,-2.961 7.098,-2.971 16.578,-0.031 33.155,-0.007 49.733,-0.021 1.238,-0.001 2.513,0.21 3.922,-0.381 -0.22,-0.723 -0.336,-1.432 -0.64,-2.05 -1.115,-2.273 -2.296,-4.516 -3.446,-6.771 -4.705,-9.219 -9.028,-18.606 -12.49,-28.371 -2.368,-6.68 -4.114,-13.506 -4.931,-20.571 -0.306,-2.641 0.073,-4.932 1.475,-7.239 2.09,-3.44 2.619,-7.316 2.299,-11.297 -0.244,-3.038 -1.551,-5.457 -4.315,-6.937 -1.114,-0.597 -2.219,-1.24 -3.394,-1.694 -4.229,-1.634 -8.485,-3.196 -12.731,-4.784 -0.46,-0.172 -1.075,-0.144 -1.099,-0.918 0.19,-0.208 0.379,-0.465 0.615,-0.666 4.695,-3.993 6.966,-9.196 7.431,-15.223 0.257,-3.323 -0.33,-6.514 -2.221,-9.374 -2.011,-3.041 -5.949,-4.244 -8.867,-3.245 -2.487,0.851 -4.576,2.206 -6.221,4.18 -4.423,5.309 -6.356,11.342 -5.029,18.256 0.075,0.391 0.078,0.796 0.139,1.459 -0.89,-0.212 -1.572,-0.35 -2.241,-0.538 -2.943,-0.829 -5.874,-1.699 -8.823,-2.505 -6.237,-1.705 -12.319,-1.283 -18.232,1.386 -0.947,0.427 -1.935,0.765 -2.881,1.135 -0.126,-0.215 -0.233,-0.313 -0.224,-0.397 0.055,-0.513 0.126,-1.024 0.209,-1.534 0.889,-5.499 -0.376,-10.482 -3.655,-14.948 -1.266,-1.724 -2.851,-3.111 -4.922,-3.837 -2.607,-0.915 -5.133,-0.282 -6.79,1.913 -0.746,0.989 -1.409,2.16 -1.707,3.349 -1.704,6.801 0.106,12.716 4.858,17.763 0.708,0.751 1.691,1.244 2.558,1.841 0.415,0.286 0.854,0.535 1.445,0.901 -0.833,0.647 -1.488,1.163 -2.151,1.669 -2.684,2.05 -5.397,4.064 -8.043,6.162 -1.153,0.915 -2.235,1.94 -3.237,3.02 -1.688,1.82 -2.78,3.972 -3.1,6.458 -0.502,3.897 0.115,7.589 2.281,10.914 1.091,1.676 2.339,3.252 3.535,4.858 0.56,0.753 1.166,1.472 1.71,2.155 -0.378,2.97 -0.754,5.791 -1.095,8.617 -0.939,7.781 -2.667,15.375 -5.374,22.738 -0.763,2.074 -1.366,4.22 -2.282,6.224 -2.411998,5.274 -4.963998,10.485 -7.437998,15.732 -0.298,0.634 -0.453,1.335 -0.661,1.967 0.985,0.812 1.964,0.572 2.873,0.578 4.434998,0.027 8.869998,0.003 13.303998,0.024 0.817,0.004 1.634,0.132 2.449,0.203 0.645,1.348 0.456,2.628 0.458,3.868 0.015,11.088 0.01,22.175 0.012,33.262 0,1.055 0,2.112 0.081,3.164 0.027,0.379 0.274,0.74 0.468,1.226 z"
       id="path9"
       inkscape:connector-curvature="0"
       style="clip-rule:evenodd;fill:#6441a5;fill-rule:evenodd;fill-opacity:1" /></g></svg>