<?xml version="1.0" encoding="UTF-8" standalone="no"?>
<!-- Generator: Adobe Illustrator 21.0.2, SVG Export Plug-In . SVG Version: 6.00 Build 0)  -->

<svg
   xmlns:dc="http://purl.org/dc/elements/1.1/"
   xmlns:cc="http://creativecommons.org/ns#"
   xmlns:rdf="http://www.w3.org/1999/02/22-rdf-syntax-ns#"
   xmlns:svg="http://www.w3.org/2000/svg"
   xmlns="http://www.w3.org/2000/svg"
   xmlns:sodipodi="http://sodipodi.sourceforge.net/DTD/sodipodi-0.dtd"
   xmlns:inkscape="http://www.inkscape.org/namespaces/inkscape"
   version="1.1"
   id="Layer_2"
   x="0px"
   y="0px"
   viewBox="0 0 973.90002 1079.9047"
   xml:space="preserve"
   sodipodi:docname="gt-offline.svg"
   width="973.90002"
   height="1079.9047"
   inkscape:version="0.92.2 5c3e80d, 2017-08-06"><metadata
     id="metadata26"><rdf:RDF><cc:Work
         rdf:about=""><dc:format>image/svg+xml</dc:format><dc:type
           rdf:resource="http://purl.org/dc/dcmitype/StillImage" /><dc:title /></cc:Work></rdf:RDF></metadata><defs
     id="defs24" /><sodipodi:namedview
     pagecolor="#ffffff"
     bordercolor="#666666"
     borderopacity="1"
     objecttolerance="10"
     gridtolerance="10"
     guidetolerance="10"
     inkscape:pageopacity="0"
     inkscape:pageshadow="2"
     inkscape:window-width="640"
     inkscape:window-height="480"
     id="namedview22"
     showgrid="false"
     fit-margin-top="0"
     fit-margin-left="0"
     fit-margin-right="0"
     fit-margin-bottom="0"
     inkscape:zoom="0.17760417"
     inkscape:cx="460.2"
     inkscape:cy="477.72535"
     inkscape:window-x="180"
     inkscape:window-y="146"
     inkscape:window-maximized="0"
     inkscape:current-layer="Layer_2"
     showguides="false" /><style
     type="text/css"
     id="style2">
	.st0{fill:#6542A5;}
	.st1{fill:#FFFFFF;}
</style><g
     id="g46"><path
       class="st0"
       d="m 973.9,17.4 c -0.8,7.7 -2.6,14.8 -3.9,21.9 -0.4,2.2 -2.2,3.2 -3.7,4.4 -14.4,12 -28.7,24 -43.1,36 -1.3,1.1 -3,1.9 -3.9,4.3 14.1,2.8 28,5.5 42.6,8.3 -2.1,11.2 -4.2,21.9 -6.3,33.4 -31.8,-6.1 -63.1,-12.1 -94.8,-18.2 1.7,-8.7 3.3,-16.5 4.7,-24.5 0.4,-2.5 2.2,-3.6 3.8,-5 13.4,-11.3 26.8,-22.6 40.2,-34 1.4,-1.2 3.3,-2.1 4.1,-4.5 -12,-2.3 -23.9,-4.7 -36.2,-7.1 1.8,-11 3.7,-21.5 6.3,-32.4 30.2,5.9 60.1,11.7 90.2,17.4 z"
       id="path4"
       inkscape:connector-curvature="0"
       style="fill:#6542a5" /><path
       class="st0"
       d="m 868.9,121.6 c -2.7,6.1 -5.2,11.8 -7.7,17.5 -1,2.2 -3.2,2.8 -5.1,3.7 -13.7,7 -27.4,13.9 -41.1,20.9 -1.7,0.9 -3.7,1.5 -5.6,3.6 11.2,5.6 22.6,9.9 34.4,15.6 -3.9,9 -7.7,17.7 -11.9,27.1 -25.8,-11.4 -51.2,-22.6 -77.2,-34 3.2,-7.2 6.2,-13.8 9.1,-20.4 0.8,-1.8 2.6,-2.2 4.2,-3.1 13.1,-6.8 26.3,-13.5 39.4,-20.3 1.7,-0.9 3.7,-1.3 5.2,-3.7 -9.6,-4.3 -19.2,-8.6 -29.2,-13.1 3.9,-8.8 7.6,-17.2 11.6,-26.3 24.5,10.7 48.9,21.5 73.9,32.5 z"
       id="path6"
       inkscape:connector-curvature="0"
       style="fill:#6542a5" /><path
       class="st0"
       d="m 841.1,252.2 c -1.9,2.4 -3.8,4.4 -5.4,6.6 -1.9,2.6 -4.4,3.7 -7.4,4.2 -9,1.5 -17.8,3.1 -26.8,4.7 -0.9,0.2 -2,0.1 -2.7,1.9 5.2,4.5 10.7,9.2 16.3,14.1 -3.3,5.1 -7.5,9.2 -11.7,14.2 -13.1,-11.2 -26.1,-22.3 -39.6,-33.8 2.9,-3.5 5.7,-6.7 8.5,-9.9 1.3,-1.5 3,-1.6 4.8,-1.9 8.5,-1.5 17,-3.1 25.6,-4.7 0.9,-0.2 2,-0.1 3,-1.9 -4.7,-4 -9.3,-8 -14,-12.1 3.7,-4.9 7.4,-9.2 11.6,-13.6 12.6,10.7 25,21.3 37.8,32.2 z"
       id="path8"
       inkscape:connector-curvature="0"
       style="fill:#6542a5" /><g
       id="g38"><path
         style="fill:#6542a5"
         inkscape:connector-curvature="0"
         id="path10"
         d="m 244,823.8 c -3.6,7.4 -7.2,14.9 -10.7,22.4 -1,2.1 -2.2,4.1 -1.9,6.4 2.1,1.9 4.3,1.3 6.5,1.4 10.1,0 20.1,0 30.2,0 2.8,0 5.5,0 8.6,1 1.8,2.7 1.5,5.5 1.5,8.2 0,28.4 0,56.8 0,85.2 0,2.6 -0.7,5.6 1.4,8 2.7,-0.3 4.1,-2.3 5.7,-3.9 31.5,-31.5 63.1,-63.1 94.5,-94.7 2.7,-2.7 5.5,-4 9.4,-4 43,0.1 86,0.1 129,0.1 2.5,0 5.1,0.3 7.5,-0.9 0.2,-3.4 -1.5,-5.8 -2.8,-8.4 -8.7,-17 -17.4,-34 -25,-51.6 -10.3,-23.9 -19.4,-48.2 -23.6,-74.2 -1.7,-10.2 -1.7,-19.7 3.9,-29.1 5.2,-8.8 5.5,-18.8 3.7,-28.8 -1,-5.3 -3.8,-9.4 -8.5,-12.3 -3.7,-2.3 -7.5,-4.3 -11.6,-5.8 -9.4,-3.5 -18.8,-7 -28.2,-10.6 -1.4,-0.5 -3.1,-0.6 -3.7,-2.3 0.2,-1.9 1.7,-2.7 2.8,-3.7 8.5,-8 13.7,-17.8 15.6,-29.2 1.7,-10.3 1.7,-20.5 -4.5,-29.7 -5.4,-8 -14.9,-11 -23.9,-7.5 -4.3,1.7 -8.2,4 -11.3,7.4 -11.9,12.9 -17.7,27.8 -14.8,45.5 0.3,1.6 1,3.4 -0.6,5.2 -7.9,-2.2 -15.9,-4.5 -23.8,-6.7 -16.3,-4.7 -32.3,-4.1 -47.9,3 -2,0.9 -4,2.3 -6.9,1.7 0.3,-3.6 0.8,-6.9 0.8,-10.3 0.4,-14.2 -4.1,-26.5 -14.8,-35.9 -10.7,-9.4 -22.9,-5.6 -27.4,7.8 -0.2,0.6 -0.4,1.1 -0.6,1.7 -4.7,18.3 2.6,37.2 18.2,47.6 1.1,0.7 2.5,1.1 2.9,3.1 -3.4,2.7 -7,5.4 -10.6,8.2 -6.7,5.2 -13.7,10 -19.8,16 -4.4,4.4 -7.7,9.4 -9,15.6 -2.2,10.6 -0.5,20.4 5.4,29.4 3,4.6 6.3,9.1 9.8,13.3 2.2,2.7 3.1,5.2 2.4,8.6 -0.8,4 -1.3,8.2 -1.8,12.3 -3.2,31.9 -12.1,61.9 -26.1,90.5 z M 122.3,347.5 c -1.9,14.1 -1.9,494.2 0.1,505.9 1.1,0.2 1.9,0.4 2.6,0.4 13,0.1 26,0.1 39.1,0.2 3.9,0 6,-2.1 7.8,-5.3 4.8,-8.8 9.8,-17.6 14.8,-26.3 15.9,-28.4 31.7,-56.8 43.6,-87.2 9.3,-23.8 14.9,-48.2 14.4,-73.8 -0.4,-22.9 -1.3,-45.8 -2.2,-68.6 -0.4,-11.1 -1.2,-22.1 -1.7,-33.1 -0.9,-19.9 -1,-39.8 2.5,-59.6 5.3,-29.9 17.6,-56.8 35.7,-81 22.8,-30.5 54.2,-45.9 91,-52.1 9.1,-1.5 18.1,-0.2 27.2,0 13.2,0.3 26.4,1.6 39.2,4.9 50.3,12.9 86.5,42.3 105.5,91.4 8.9,22.9 12,46.9 12.1,71.3 0.1,16.4 -0.1,32.8 -0.1,49.1 0,18.6 -0.2,37.1 1.3,55.6 1.9,23.7 8,46.1 18.9,67.3 15.2,29.7 33,57.9 52.8,84.8 1.5,2 3,4.1 5.1,5.3 2,-0.8 3.1,-2.2 4.4,-3.5 19.6,-19.5 39.1,-39.1 58.7,-58.5 2.8,-2.8 3.6,-5.8 3.6,-9.6 0,-123.1 0,-246.3 0,-369.4 0,-9.4 -0.5,-9.9 -10.1,-9.9 -182.3,0 -364.7,0 -547,0 -3.9,0 -7.9,0 -11.8,0 -2.8,0.1 -5.3,0.3 -7.5,1.7 z m 642.8,-70 c 2.3,3.3 2,6.3 2,9.2 0,16.2 0,32.4 0,48.5 0,139.5 0,279 0,418.5 0,14.2 2,10 -8.4,20.4 -64.9,64.9 -129.8,129.8 -194.5,194.8 -4.5,4.5 -8.9,6.6 -15.5,6.5 -47.1,-0.3 -94.3,-0.1 -141.5,-0.2 -4.7,0 -8.1,1.4 -11.4,4.8 -31.5,31.8 -63.3,63.4 -94.8,95.2 -3.3,3.3 -6.6,4.8 -11.3,4.7 -29.8,-0.2 -59.6,-0.1 -89.4,-0.1 -2.1,0 -4.3,0 -6.2,0 -2.6,-2.2 -2,-4.9 -2,-7.4 0,-29.4 0,-58.8 0,-88.2 0,-9 -0.1,-9 -8.8,-9 -58.4,0 -116.8,0 -175.2,0 -2.4,0 -4.7,0.1 -7,-1.2 -1.2,-1.3 -0.9,-2.9 -1,-4.4 -0.1,-2.2 0,-4.3 0,-6.5 0,-177.6 0,-355.2 -0.1,-532.7 0,-9.3 1.6,-17.9 4.8,-26.5 14.9,-39.2 29.6,-78.6 44.4,-117.9 1,-2.5 1.7,-5.3 4.1,-8.5 237.2,-0.5 474.7,-0.4 711.8,0 z"
         class="st0" /><path
         style="fill:none"
         inkscape:connector-curvature="0"
         id="path12"
         d="m 268.1,854.1 c -10.1,0 -20.1,0 -30.2,0 -2.1,0 -4.4,0.5 -6.5,-1.4 -0.3,-2.3 1,-4.3 1.9,-6.4 3.5,-7.5 7,-15 10.7,-22.4 14,-28.6 22.9,-58.7 26.2,-90.4 0.4,-4.1 0.9,-8.2 1.8,-12.3 0.7,-3.4 -0.2,-6 -2.4,-8.6 -3.5,-4.3 -6.8,-8.7 -9.8,-13.3 -5.9,-9 -7.6,-18.9 -5.4,-29.4 1.3,-6.2 4.6,-11.2 9,-15.6 6.1,-6 13.1,-10.8 19.8,-16 3.6,-2.8 7.2,-5.5 10.6,-8.2 -0.3,-2 -1.8,-2.4 -2.9,-3.1 -15.6,-10.4 -22.9,-29.4 -18.2,-47.6 0.1,-0.6 0.4,-1.1 0.6,-1.7 4.6,-13.4 16.7,-17.1 27.4,-7.8 10.7,9.4 15.2,21.8 14.8,35.9 -0.1,3.3 -0.5,6.6 -0.8,10.3 2.9,0.6 4.9,-0.8 6.9,-1.7 15.6,-7.2 31.6,-7.7 47.9,-3 7.9,2.3 15.9,4.5 23.8,6.7 1.7,-1.8 0.9,-3.5 0.6,-5.2 -2.9,-17.7 2.8,-32.6 14.8,-45.5 3.1,-3.4 7,-5.7 11.3,-7.4 9,-3.5 18.6,-0.6 23.9,7.5 6.2,9.2 6.2,19.4 4.5,29.7 -1.9,11.4 -7.1,21.2 -15.6,29.2 -1.1,1 -2.6,1.8 -2.8,3.7 0.6,1.7 2.3,1.8 3.7,2.3 9.4,3.6 18.8,7.1 28.2,10.6 4.1,1.5 7.9,3.5 11.6,5.8 4.6,2.9 7.5,7.1 8.5,12.3 1.8,9.9 1.5,20 -3.7,28.8 -5.6,9.4 -5.6,18.8 -3.9,29.1 4.2,25.9 13.3,50.2 23.6,74.2 7.6,17.6 16.3,34.6 25,51.6 1.3,2.6 3,5.1 2.8,8.4 -2.5,1.3 -5,0.9 -7.5,0.9 -43,0 -86,0 -129,-0.1 -3.9,0 -6.7,1.3 -9.4,4 -31.5,31.6 -63,63.1 -94.5,94.7 -1.6,1.6 -3.1,3.6 -5.7,3.9 -2.1,-2.4 -1.4,-5.3 -1.4,-8 -0.1,-28.4 0,-56.8 0,-85.2 0,-2.7 0.3,-5.5 -1.5,-8.2 -3.2,-1.1 -5.9,-1.2 -8.7,-1.1 z"
         class="st1" /></g></g><g
     id="g16"
     transform="translate(-499.8,0.1)" /></svg>