<?xml version="1.0" encoding="UTF-8" standalone="no"?>
<!-- Generator: Adobe Illustrator 21.0.2, SVG Export Plug-In . SVG Version: 6.00 Build 0)  -->

<svg
   xmlns:dc="http://purl.org/dc/elements/1.1/"
   xmlns:cc="http://creativecommons.org/ns#"
   xmlns:rdf="http://www.w3.org/1999/02/22-rdf-syntax-ns#"
   xmlns:svg="http://www.w3.org/2000/svg"
   xmlns="http://www.w3.org/2000/svg"
   xmlns:sodipodi="http://sodipodi.sourceforge.net/DTD/sodipodi-0.dtd"
   xmlns:inkscape="http://www.inkscape.org/namespaces/inkscape"
   version="1.1"
   id="Layer_2"
   x="0px"
   y="0px"
   viewBox="0 0 973.90002 1079.9047"
   xml:space="preserve"
   sodipodi:docname="gt-offline-symbolic.svg"
   width="973.90002"
   height="1079.9047"
   inkscape:version="0.92.2 5c3e80d, 2017-08-06"><metadata
     id="metadata26"><rdf:RDF><cc:Work
         rdf:about=""><dc:format>image/svg+xml</dc:format><dc:type
           rdf:resource="http://purl.org/dc/dcmitype/StillImage" /><dc:title></dc:title></cc:Work></rdf:RDF></metadata><defs
     id="defs24" /><sodipodi:namedview
     pagecolor="#ffffff"
     bordercolor="#666666"
     borderopacity="1"
     objecttolerance="10"
     gridtolerance="10"
     guidetolerance="10"
     inkscape:pageopacity="0"
     inkscape:pageshadow="2"
     inkscape:window-width="640"
     inkscape:window-height="480"
     id="namedview22"
     showgrid="false"
     fit-margin-top="0"
     fit-margin-left="0"
     fit-margin-right="0"
     fit-margin-bottom="0"
     inkscape:zoom="0.17760417"
     inkscape:cx="460.2"
     inkscape:cy="330.25268"
     inkscape:window-x="180"
     inkscape:window-y="146"
     inkscape:window-maximized="0"
     inkscape:current-layer="Layer_2" /><style
     type="text/css"
     id="style2">
	.st0{fill:#6542A5;}
	.st1{fill:#FFFFFF;}
</style><path
     style="fill:#000000"
     inkscape:connector-curvature="0"
     id="path4"
     d="m 973.9,17.4 c -0.8,7.7 -2.6,14.8 -3.9,21.9 -0.4,2.2 -2.2,3.2 -3.7,4.4 -14.4,12 -28.7,24 -43.1,36 -1.3,1.1 -3,1.9 -3.9,4.3 14.1,2.8 28,5.5 42.6,8.3 -2.1,11.2 -4.2,21.9 -6.3,33.4 -31.8,-6.1 -63.1,-12.1 -94.8,-18.2 1.7,-8.7 3.3,-16.5 4.7,-24.5 0.4,-2.5 2.2,-3.6 3.8,-5 13.4,-11.3 26.8,-22.6 40.2,-34 1.4,-1.2 3.3,-2.1 4.1,-4.5 -12,-2.3 -23.9,-4.7 -36.2,-7.1 1.8,-11 3.7,-21.5 6.3,-32.4 30.2,5.9 60.1,11.7 90.2,17.4 z"
     class="st0" /><path
     style="fill:#000000"
     inkscape:connector-curvature="0"
     id="path6"
     d="m 868.9,121.6 c -2.7,6.1 -5.2,11.8 -7.7,17.5 -1,2.2 -3.2,2.8 -5.1,3.7 -13.7,7 -27.4,13.9 -41.1,20.9 -1.7,0.9 -3.7,1.5 -5.6,3.6 11.2,5.6 22.6,9.9 34.4,15.6 -3.9,9 -7.7,17.7 -11.9,27.1 -25.8,-11.4 -51.2,-22.6 -77.2,-34 3.2,-7.2 6.2,-13.8 9.1,-20.4 0.8,-1.8 2.6,-2.2 4.2,-3.1 13.1,-6.8 26.3,-13.5 39.4,-20.3 1.7,-0.9 3.7,-1.3 5.2,-3.7 -9.6,-4.3 -19.2,-8.6 -29.2,-13.1 3.9,-8.8 7.6,-17.2 11.6,-26.3 24.5,10.7 48.9,21.5 73.9,32.5 z"
     class="st0" /><path
     style="fill:#000000"
     inkscape:connector-curvature="0"
     id="path8"
     d="m 841.1,252.2 c -1.9,2.4 -3.8,4.4 -5.4,6.6 -1.9,2.6 -4.4,3.7 -7.4,4.2 -9,1.5 -17.8,3.1 -26.8,4.7 -0.9,0.2 -2,0.1 -2.7,1.9 5.2,4.5 10.7,9.2 16.3,14.1 -3.3,5.1 -7.5,9.2 -11.7,14.2 -13.1,-11.2 -26.1,-22.3 -39.6,-33.8 2.9,-3.5 5.7,-6.7 8.5,-9.9 1.3,-1.5 3,-1.6 4.8,-1.9 8.5,-1.5 17,-3.1 25.6,-4.7 0.9,-0.2 2,-0.1 3,-1.9 -4.7,-4 -9.3,-8 -14,-12.1 3.7,-4.9 7.4,-9.2 11.6,-13.6 12.6,10.7 25,21.3 37.8,32.2 z"
     class="st0" /><path
     style="fill:#000000"
     d="M 409.23828 277.16211 C 290.57578 277.14961 171.90078 277.25 53.300781 277.5 C 50.900781 280.7 50.199219 283.5 49.199219 286 C 34.399219 325.3 19.700781 364.70039 4.8007812 403.90039 C 1.6007812 412.50039 0 421.10039 0 430.40039 C 0.1 607.90039 0.099609375 785.49961 0.099609375 963.09961 C 0.099609375 965.29961 -0.000390625 967.39961 0.099609375 969.59961 C 0.19960937 971.09961 -0.10039062 972.7 1.0996094 974 C 3.3996094 975.3 5.6996094 975.19922 8.0996094 975.19922 L 183.30078 975.19922 C 192.00078 975.19922 192.09961 975.19922 192.09961 984.19922 L 192.09961 1072.4004 C 192.09961 1074.9004 191.49961 1077.6008 194.09961 1079.8008 L 200.30078 1079.8008 C 230.10078 1079.8008 259.89922 1079.7004 289.69922 1079.9004 C 294.39922 1080.0004 297.7 1078.4992 301 1075.1992 C 332.5 1043.3992 364.30078 1011.8 395.80078 980 C 399.10078 976.6 402.49922 975.19922 407.19922 975.19922 C 454.39922 975.29922 501.59922 975.10039 548.69922 975.40039 C 555.29922 975.50039 559.69922 973.40039 564.19922 968.90039 C 628.89922 903.90039 693.79922 838.99961 758.69922 774.09961 C 769.09922 763.69961 767.09961 767.89922 767.09961 753.69922 L 767.09961 335.19922 L 767.09961 286.69922 C 767.09961 283.79922 767.39961 280.8 765.09961 277.5 C 646.54961 277.3 527.90078 277.17461 409.23828 277.16211 z M 129.80078 345.80078 L 141.59961 345.80078 L 688.59961 345.80078 C 698.19961 345.80078 698.69922 346.29922 698.69922 355.69922 L 698.69922 725.09961 C 698.69922 728.89961 697.89961 731.89922 695.09961 734.69922 C 675.49961 754.09922 656.00039 773.69922 636.40039 793.19922 C 635.10039 794.49922 634 795.89922 632 796.69922 C 629.9 795.49922 628.40039 793.40039 626.90039 791.40039 C 607.10039 764.50039 589.29961 736.29961 574.09961 706.59961 C 563.19961 685.39961 557.09922 663.00078 555.19922 639.30078 C 553.69922 620.80078 553.90039 602.29922 553.90039 583.69922 C 553.90039 567.39922 554.1 550.99961 554 534.59961 C 553.9 510.19961 550.80039 486.20078 541.90039 463.30078 C 522.90039 414.20078 486.70039 384.80039 436.40039 371.90039 C 423.60039 368.60039 410.39922 367.3 397.19922 367 C 388.09922 366.8 379.1 365.5 370 367 C 333.2 373.2 301.8 388.59961 279 419.09961 C 260.9 443.29961 248.60078 470.19961 243.30078 500.09961 C 239.80078 519.89961 239.90078 539.79922 240.80078 559.69922 C 241.30078 570.69922 242.1 581.70078 242.5 592.80078 C 243.4 615.60078 244.29922 638.50039 244.69922 661.40039 C 245.19922 687.00039 239.60078 711.39922 230.30078 735.19922 C 218.40078 765.59922 202.59922 794.00039 186.69922 822.40039 C 181.69922 831.10039 176.70039 839.89922 171.90039 848.69922 C 170.10039 851.89922 167.99961 854 164.09961 854 C 150.99961 853.9 138 853.90078 125 853.80078 C 124.3 853.80078 123.50039 853.60039 122.40039 853.40039 C 120.40039 841.70039 120.40078 361.6 122.30078 347.5 C 124.50078 346.1 127.00078 345.90078 129.80078 345.80078 z M 426.67188 558.37109 C 433.39375 558.11328 439.75078 561.30078 443.80078 567.30078 C 444.60084 568.48797 445.29324 569.6916 445.89648 570.91016 C 450.07149 579.19068 449.89309 588.15523 448.40039 597.19922 C 446.50039 608.59922 441.30078 618.40039 432.80078 626.40039 C 431.70078 627.40039 430.2 628.19961 430 630.09961 C 430.0499 630.24098 430.11733 630.35617 430.18164 630.47656 C 430.93021 631.63129 432.37846 631.76309 433.59961 632.19922 C 442.99961 635.79922 452.40078 639.30078 461.80078 642.80078 C 465.90078 644.30078 469.70039 646.29961 473.40039 648.59961 C 476.99854 650.81975 479.47279 653.7502 480.88867 657.37695 C 481.37636 658.55205 481.74884 659.7936 482 661.09961 C 483.8 670.99961 483.50078 681.10039 478.30078 689.90039 C 472.70078 699.30039 472.70039 708.7 474.40039 719 C 478.60039 744.9 487.7 769.19922 498 793.19922 C 501.8 801.99922 505.87539 810.64961 510.08789 819.22461 C 512.16244 823.44488 514.26831 827.64669 516.39258 831.83984 C 518.55039 836.09922 520.72539 840.34961 522.90039 844.59961 C 523.56517 845.92916 524.33202 847.20833 524.89844 848.59375 C 525.4946 849.99869 525.90436 851.49014 525.80078 853.19922 C 523.30078 854.49922 520.80078 854.09961 518.30078 854.09961 C 475.30078 854.09961 432.30078 854.1 389.30078 854 C 385.40078 854 382.60039 855.3 379.90039 858 C 348.40039 889.6 316.90039 921.09922 285.40039 952.69922 C 283.80039 954.29922 282.29922 956.29961 279.69922 956.59961 C 279.28961 956.13148 278.99011 955.64355 278.76758 955.14258 C 277.72184 953.00187 278.19922 950.56311 278.19922 948.40039 L 278.19922 863.19922 C 278.19922 860.86434 278.41783 858.45666 277.31445 856.10156 C 277.1633 855.8002 277.00023 855.4984 276.80078 855.19922 C 273.60078 854.09922 270.89961 853.99961 268.09961 854.09961 L 237.90039 854.09961 C 235.80039 854.09961 233.50039 854.59922 231.40039 852.69922 C 231.36245 852.40836 231.35018 852.12387 231.35938 851.8418 C 231.37125 849.85327 232.41228 848.06507 233.30078 846.19922 C 235.56611 841.34494 237.87722 836.50295 240.19922 831.67578 C 240.65057 830.73684 241.10272 829.79801 241.55859 828.86133 C 242.37344 827.17485 243.18399 825.47815 244 823.80078 C 258 795.20078 266.89961 765.20078 270.09961 733.30078 C 270.59961 729.20078 271.10039 725 271.90039 721 C 272.4237 718.45822 272.05187 716.41921 270.91211 714.42383 C 270.545 713.80948 270.11094 713.20391 269.59961 712.59961 C 266.09961 708.29961 262.80078 703.90078 259.80078 699.30078 C 259.0314 698.12715 258.33619 696.93599 257.70898 695.73242 C 253.44118 687.66962 252.37217 678.99162 254.30078 669.69922 C 255.60078 663.49922 258.90078 658.49961 263.30078 654.09961 C 269.40078 648.09961 276.39961 643.29961 283.09961 638.09961 C 286.69961 635.29961 290.29922 632.60039 293.69922 629.90039 C 293.6022 629.41531 293.44417 629.02707 293.24805 628.70312 C 292.63522 627.84819 291.67338 627.4919 290.90039 627 C 285.02395 623.08237 280.32705 617.94373 277.00391 612.08789 C 271.42678 602.3847 269.6525 590.67414 272.59961 579.19922 C 272.79961 578.59922 272.99922 578.1 273.19922 577.5 C 277.69922 564.1 289.89961 560.29922 300.59961 569.69922 C 305.3504 573.87281 308.87287 578.62212 311.29297 583.85156 C 311.60633 584.52869 311.9052 585.21112 312.18164 585.9043 C 314.64774 591.99161 315.70205 598.67836 315.5 605.80078 C 315.40173 609.04364 315.01293 612.29358 314.71484 615.91602 C 317.55063 616.45389 319.52754 615.08682 321.5 614.19922 C 337.1 607.09922 353.10039 606.49922 369.40039 611.19922 C 377.30039 613.39922 385.29922 615.70039 393.19922 617.90039 C 394.79922 616.10039 394.10078 614.29922 393.80078 612.69922 C 390.90078 594.99922 396.69961 580.09922 408.59961 567.19922 C 411.69961 563.79922 415.60039 561.50078 419.90039 559.80078 C 422.15039 558.92578 424.43125 558.45703 426.67188 558.37109 z "
     id="path10" /></svg>