<?xml version="1.0" encoding="UTF-8" standalone="no"?>
<svg
   xmlns:dc="http://purl.org/dc/elements/1.1/"
   xmlns:cc="http://creativecommons.org/ns#"
   xmlns:rdf="http://www.w3.org/1999/02/22-rdf-syntax-ns#"
   xmlns:svg="http://www.w3.org/2000/svg"
   xmlns="http://www.w3.org/2000/svg"
   height="21.890434"
   width="22.41913"
   version="1.1"
   viewBox="0 0 22.41913 21.890434"
   id="svg6">
  <metadata
     id="metadata12">
    <rdf:RDF>
      <cc:Work
         rdf:about="">
        <dc:format>image/svg+xml</dc:format>
        <dc:type
           rdf:resource="http://purl.org/dc/dcmitype/StillImage" />
        <dc:title></dc:title>
      </cc:Work>
    </rdf:RDF>
  </metadata>
  <defs
     id="defs10" />
  <path
     style="fill:#1793d1;stroke-width:0.111189"
     d="M 10.945557,0 C 9.9704286,2.3890068 9.3822386,3.9537584 8.2970339,6.2717262 8.9630566,6.9768872 9.7791836,7.7940032 11.104557,8.7214427 9.6791136,8.1347982 8.7084329,7.5500552 7.9812569,6.9388602 6.5925069,9.8361127 4.4143141,13.959113 0,21.890434 c 3.4692079,-2.002501 6.1599809,-3.2356 8.6661809,-3.70703 -0.107853,-0.462556 -0.167895,-0.965131 -0.163447,-1.487709 l 0.0033,-0.107858 c 0.05448,-2.222667 1.2119607,-3.933866 2.5818101,-3.818229 1.369848,0.115643 2.435038,2.015857 2.379445,4.238524 -0.01007,0.418072 -0.05672,0.819453 -0.138978,1.191947 2.478403,0.485895 5.141379,1.715645 8.561552,3.69035 C 21.214947,20.64846 20.610078,19.53101 20.035231,18.464697 19.12904,17.761993 18.186159,16.84801 16.25814,15.858428 c 1.324262,0.344696 2.276039,0.740529 3.015447,1.185286 C 13.425071,6.1540882 12.950295,4.7072861 10.945557,6.56e-4 Z m 10.707499,20.087393 v -0.458087 h -0.170121 v -0.06117 h 0.409176 v 0.06117 h -0.171239 v 0.458087 z m 0.274639,0 v -0.519251 h 0.102287 l 0.122311,0.368046 c 0.01119,0.03448 0.01879,0.06005 0.02445,0.07672 0.0056,-0.01879 0.01566,-0.04557 0.02781,-0.08226 l 0.123407,-0.362486 h 0.09117 v 0.519251 h -0.0645 v -0.434737 l -0.151216,0.434737 h -0.06114 l -0.149001,-0.442531 v 0.442531 z"
     id="path2" />
</svg>
