<?xml version="1.0" encoding="UTF-8" standalone="no"?>
<svg
   xmlns:dc="http://purl.org/dc/elements/1.1/"
   xmlns:cc="http://creativecommons.org/ns#"
   xmlns:rdf="http://www.w3.org/1999/02/22-rdf-syntax-ns#"
   xmlns:svg="http://www.w3.org/2000/svg"
   xmlns="http://www.w3.org/2000/svg"
   width="43.850685"
   height="43.850685"
   viewBox="-1.8 -1.8 8.4746588 8.4723853"
   version="1.1"
   id="svg8">
  <metadata
     id="metadata14">
    <rdf:RDF>
      <cc:Work
         rdf:about="">
        <dc:format>image/svg+xml</dc:format>
        <dc:type
           rdf:resource="http://purl.org/dc/dcmitype/StillImage" />
        <dc:title></dc:title>
      </cc:Work>
    </rdf:RDF>
  </metadata>
  <defs
     id="defs12" />
  <g
     id="g19"
     transform="matrix(0.25758841,0,0,0.25758841,-43.400528,-1.8012443)">
    <path
       id="path2"
       d="M 194.4,16.4 C 194.4,7.4 187,0 177.9,0 168.8,0 161.5,7.4 161.5,16.4 v 0 12.8 0 c 0,2 1.6,3.7 3.7,3.7 v 0 0 h 12.7 c 9.1,0 16.5,-7.4 16.5,-16.5"
       style="fill:#072b61" />
    <path
       style="fill:#0a57a4"
       id="path4"
       d="m 182.8,3.9 c -4.3,0 -7.8,3.5 -7.8,7.7 v 4.1 h -4.1 c -4.2,0 -7.7,3.4 -7.7,7.7 0,4.3 3.5,7.7 7.7,7.7 4.3,0 7.8,-3.4 7.8,-7.7 v -4.1 h 4.1 c 4.2,0 7.7,-3.4 7.7,-7.7 0,-4.2 -3.5,-7.7 -7.7,-7.7 z m 0,3.6 c 2.2,0 4,1.9 4,4.1 0,2.3 -1.8,4.1 -4,4.1 h -0.1 -3.4 c -0.4,0 -0.6,-0.3 -0.6,-0.6 v -3.5 c 0,-2.2 1.8,-4.1 4.1,-4.1 z m -11.9,11.8 h 3.5 c 0.4,0 0.6,0.3 0.6,0.6 v 3.5 c 0,2.3 -1.8,4.1 -4.1,4.1 -2.2,0 -4.1,-1.8 -4.1,-4.1 0,-2.2 1.9,-4.1 4.1,-4.1 z m 18.9,9.7 v 0.2 h 0.3 v 0.9 h 0.2 v -0.9 h 0.3 V 29 Z m 0.9,0 v 1.1 h 0.2 v -0.6 -0.1 0.1 l 0.3,0.6 0.3,-0.6 v -0.2 0.2 0.6 h 0.2 V 29 h -0.2 l -0.2,0.5 -0.1,0.2 V 29.5 L 190.9,29 Z" />
    <path
       id="path6"
       d="m 175,15.7 v -4.1 0 c 0,-4.2 3.5,-7.7 7.7,-7.7 0.7,0 1.1,0.1 1.7,0.2 0.9,0.3 1.6,1 1.6,1.8 0,1 -0.7,1.7 -1.8,1.7 -0.5,0 -0.7,-0.1 -1.5,-0.1 -2.2,0 -4,1.9 -4,4.1 v 3.5 0 c 0,0.4 0.2,0.6 0.5,0.6 v 0 h 2.7 c 1,0 1.8,0.8 1.8,1.8 0,1 -0.8,1.8 -1.8,1.8 h -3.2 v 4.1 0 c 0,4.3 -3.5,7.7 -7.8,7.7 -0.6,0 -1.1,0 -1.7,-0.2 -0.8,-0.2 -1.5,-0.9 -1.5,-1.8 0,-1 0.7,-1.7 1.8,-1.7 0.5,0 0.7,0.1 1.4,0.1 2.3,0 4.1,-1.8 4.1,-4.1 v -3.5 c 0,-0.3 -0.2,-0.6 -0.6,-0.6 v 0 h -2.6 c -1,0 -1.8,-0.8 -1.8,-1.8 0,-1 0.8,-1.8 1.8,-1.8 h 3.2"
       style="fill:#ffffff" />
  </g>
</svg>
