<?xml version="1.0" encoding="UTF-8" standalone="no"?>
<svg
   xmlns:dc="http://purl.org/dc/elements/1.1/"
   xmlns:cc="http://creativecommons.org/ns#"
   xmlns:rdf="http://www.w3.org/1999/02/22-rdf-syntax-ns#"
   xmlns:svg="http://www.w3.org/2000/svg"
   xmlns="http://www.w3.org/2000/svg"
   xmlns:xlink="http://www.w3.org/1999/xlink"
   version="1.1"
   x="0px"
   y="0px"
   width="45.213306"
   height="45.213306"
   viewBox="-0.424 -0.244 45.213306 45.213307"
   enable-background="new -0.424 -0.244 758 171"
   xml:space="preserve"
   id="svg18"><metadata
     id="metadata24"><rdf:RDF><cc:Work
         rdf:about=""><dc:format>image/svg+xml</dc:format><dc:type
           rdf:resource="http://purl.org/dc/dcmitype/StillImage" /><dc:title></dc:title></cc:Work></rdf:RDF></metadata><defs
     id="defs22" /><g
     id="g39"
     transform="matrix(0.49875687,0,0,0.49875687,-332.94569,-0.244)"><circle
       id="circle2"
       r="45.326"
       cy="45.326"
       cx="712.02698"
       style="fill:#dd4814" /><path
       id="path4"
       d="m 681.207,39.273 c -3.344,0 -6.053,2.709 -6.053,6.053 0,3.342 2.709,6.051 6.053,6.051 3.342,0 6.051,-2.709 6.051,-6.051 -0.001,-3.344 -2.71,-6.053 -6.051,-6.053 z m 43.207,27.504 c -2.895,1.672 -3.887,5.371 -2.215,8.264 1.67,2.895 5.369,3.887 8.264,2.215 2.895,-1.67 3.887,-5.369 2.215,-8.264 -1.671,-2.892 -5.372,-3.885 -8.264,-2.215 z M 694.351,45.326 c 0,-5.98 2.971,-11.264 7.516,-14.463 l -4.424,-7.41 c -5.295,3.539 -9.234,8.947 -10.871,15.281 1.91,1.559 3.133,3.932 3.133,6.592 0,2.658 -1.223,5.031 -3.133,6.59 1.635,6.336 5.574,11.744 10.871,15.283 l 4.424,-7.412 c -4.545,-3.197 -7.516,-8.48 -7.516,-14.461 z m 17.676,-17.678 c 9.234,0 16.811,7.08 17.605,16.109 l 8.623,-0.127 c -0.424,-6.666 -3.336,-12.65 -7.811,-17.051 -2.301,0.869 -4.959,0.736 -7.256,-0.588 -2.301,-1.328 -3.744,-3.568 -4.139,-6 -2.236,-0.617 -4.59,-0.955 -7.023,-0.955 -4.184,0 -8.139,0.982 -11.65,2.721 l 4.205,7.535 c 2.262,-1.052 4.786,-1.644 7.446,-1.644 z m 0,35.354 c -2.66,0 -5.184,-0.592 -7.445,-1.645 l -4.205,7.535 c 3.512,1.74 7.467,2.723 11.65,2.723 2.434,0 4.787,-0.338 7.023,-0.957 0.395,-2.432 1.838,-4.67 4.139,-6 2.299,-1.326 4.955,-1.457 7.256,-0.588 4.475,-4.4 7.387,-10.385 7.811,-17.051 l -8.625,-0.127 c -0.794,9.032 -8.37,16.11 -17.604,16.11 z m 12.385,-39.131 c 2.895,1.672 6.594,0.682 8.264,-2.213 1.672,-2.895 0.682,-6.594 -2.213,-8.266 -2.895,-1.67 -6.594,-0.678 -8.266,2.217 -1.67,2.893 -0.678,6.592 2.215,8.262 z"
       style="fill:#ffffff" /><g
       id="g32"><use
         x="0"
         y="0"
         xlink:href="#circle2"
         id="use26"
         width="100%"
         height="100%" /><use
         x="0"
         y="0"
         xlink:href="#path4"
         id="use28"
         width="100%"
         height="100%" /></g></g></svg>